<?xml version="1.0" standalone="no"?>
<!DOCTYPE svg PUBLIC "-//W3C//DTD SVG 1.1//EN" "http://www.w3.org/Graphics/SVG/1.1/DTD/svg11.dtd" >
<svg xmlns="http://www.w3.org/2000/svg">
<metadata>Generated by IcoMoon</metadata>
<defs>
<font id="icomoon" horiz-adv-x="1024">
<font-face units-per-em="1024" ascent="960" descent="-64" />
<missing-glyph horiz-adv-x="1024" />
<glyph unicode="&#x20;" horiz-adv-x="512" d="" />
<glyph unicode="&#xe900;" glyph-name="maps-and-flags" horiz-adv-x="768" d="M725.333 552.789c0-291.925-308.565-562.261-308.565-562.261-18.005-15.787-47.531-15.787-65.536 0 0 0-308.565 270.336-308.565 562.261 0 201.344 152.832 364.544 341.333 364.544s341.333-163.2 341.333-364.544zM384 373.333c110.080 0 199.68 85.547 199.68 190.677s-89.6 190.677-199.68 190.677c-110.080 0-199.68-85.547-199.68-190.72 0-105.088 89.6-190.635 199.68-190.635z" />
<glyph unicode="&#xe901;" glyph-name="cancel" d="M521.088 564.096l-265.856 266.88c-23.184 23.264-55.255 37.658-90.688 37.658-70.707 0-128.026-57.319-128.026-128.026 0-35.274 14.265-67.216 37.342-90.372l238.844-239.612-238.464-237.696c-22.31-23.010-36.062-54.428-36.062-89.059 0-70.692 57.308-128 128-128 34.503 0 65.818 13.651 88.837 35.848l-0.039-0.037 266.24 265.344 266.24-265.344c22.602-20.469 52.728-32.997 85.781-32.997 70.692 0 128 57.308 128 128 0 33.212-12.649 63.469-33.392 86.218l0.091-0.101-238.336 237.824 238.72 239.616c24.842 23.402 40.31 56.517 40.31 93.244 0 70.692-57.308 128-128 128-36.823 0-70.014-15.549-93.366-40.439l-0.064-0.069-266.24-266.88z" />
<glyph unicode="&#xe902;" glyph-name="edit" d="M630.892 726.312l153.438-154.247-388.473-390.413-153.438 154.193 388.473 390.467zM900.797 763.5c20.534-20.642 20.534-53.895 0-74.483l-76.477-76.854-153.492 154.247 65.59 65.859c12.26 12.31 29.223 19.928 47.966 19.928s35.707-7.617 47.964-19.925l68.449-68.772zM162.115 119.080l38.804 175.050 153.331-154.247-171.008-41.715c-1.215-0.301-2.609-0.473-4.043-0.473-9.674 0-17.516 7.842-17.516 17.516 0 1.371 0.158 2.706 0.456 3.987l-0.023-0.118z" />
<glyph unicode="&#xe903;" glyph-name="file" d="M890.419 680.448l-225.28 222.822c-3.432 3.4-8.149 5.508-13.359 5.53h-431.364c-50.995 0-92.416-40.96-92.416-91.392v-738.816c0-50.381 41.472-91.392 92.416-91.392h583.168c50.944 0 92.416 40.96 92.416 91.392v588.544c0 5.018-2.048 9.779-5.581 13.312zM670.771 844.595l160.307-158.669h-105.984c-14.49 0-28.16 5.632-38.4 15.77-9.831 9.651-15.923 23.081-15.923 37.934 0 0.038 0 0.076 0 0.114v-0.006 104.858zM857.958 78.643c0-29.696-24.371-53.811-54.374-53.811h-583.168c-0.061 0-0.134 0-0.206 0-29.773 0-53.936 24.020-54.168 53.738v738.838c0 29.645 24.371 53.76 54.374 53.76h412.314v-131.43c0-24.422 9.626-47.36 27.034-64.614 17.459-17.254 40.704-26.778 65.382-26.778h132.813v-569.754zM311.859 345.6h-9.267c-11.571 0-20.941-11.469-20.941-25.6s9.37-25.6 20.941-25.6h9.318c11.571 0 20.941 11.469 20.941 25.6s-9.37 25.6-20.941 25.6zM724.429 345.6h-322.509c-9.933 0-17.971-11.469-17.971-25.6s8.038-25.6 17.971-25.6h322.458c9.933 0 17.971 11.469 17.971 25.6s-8.038 25.6-17.971 25.6zM311.808 448h-9.216c-11.571 0-20.941-11.469-20.941-25.6s9.37-25.6 20.941-25.6h9.318c11.571 0 20.941 11.469 20.941 25.6s-9.37 25.6-20.941 25.6zM724.378 448h-322.458c-9.933 0-17.971-11.469-17.971-25.6s8.038-25.6 17.971-25.6h322.458c9.933 0 17.971 11.469 17.971 25.6s-8.038 25.6-17.971 25.6zM311.808 550.4h-9.216c-11.622 0-20.992-11.469-20.992-25.6s9.37-25.6 20.941-25.6h9.318c11.571 0 20.941 11.469 20.941 25.6s-9.37 25.6-20.941 25.6zM724.378 550.4h-322.458c-9.882 0-17.92-11.469-17.92-25.6s8.038-25.6 17.971-25.6h322.458c9.933 0 17.971 11.469 17.971 25.6s-8.038 25.6-17.971 25.6z" />
<glyph unicode="&#xe904;" glyph-name="history" d="M764.8 491.2c-21.738 139.393-140.93 244.8-284.742 244.8-159.058 0-288-128.942-288-288 0-159.037 128.908-287.966 287.938-288h0.004c0.138 0 0.301 0 0.465 0 70.911 0 135.81 25.745 185.857 68.399l-0.402-0.334c5.541 4.715 12.779 7.582 20.688 7.582 17.681 0 32.014-14.333 32.014-32.014 0-9.772-4.379-18.522-11.281-24.394l-0.045-0.038c-60.714-51.731-140.070-83.2-226.775-83.2-0.183 0-0.366 0-0.549 0h0.028c-194.4 0-352 157.6-352 352s157.6 352 352 352c182.496 0 332.544-138.88 350.24-316.704l44.416 44.576c5.796 5.816 13.814 9.415 22.672 9.415 17.677 0 32.007-14.33 32.007-32.007 0-8.818-3.566-16.804-9.335-22.593l-95.679-95.999c-5.795-5.818-13.813-9.417-22.672-9.417-8.827 0-16.819 3.574-22.608 9.354v0l-96.32 96c-5.806 5.794-9.398 13.806-9.398 22.656 0 17.677 14.33 32.006 32.006 32.006 8.826 0 16.818-3.573 22.609-9.351l36.831-36.735zM510.464 549.056v-94.048l87.104-52.256c9.367-5.697 15.528-15.849 15.528-27.44 0-17.678-14.331-32.008-32.008-32.008-6.087 0-11.777 1.699-16.621 4.648l0.141-0.080-102.592 61.568c-9.38 5.692-15.552 15.85-15.552 27.449 0 0.002 0 0.005 0 0.007v0 112.16c0 17.673 14.327 32 32 32s32-14.327 32-32v0z" />
<glyph unicode="&#xe905;" glyph-name="menu" d="M619.93 250.163c-0.029-19.263-15.651-34.867-34.918-34.867 0 0 0 0 0 0h-418.918c-0.399-0.016-0.867-0.026-1.337-0.026-19.285 0-34.918 15.634-34.918 34.918s15.634 34.918 34.918 34.918c0.47 0 0.938-0.009 1.404-0.028l-0.067 0.002h418.918c19.302 0 34.918-15.616 34.918-34.918zM794.47 459.622c0-19.285-15.634-34.918-34.918-34.918v0h-593.408c-19.285 0-34.918 15.634-34.918 34.918s15.634 34.918 34.918 34.918h593.408c19.302 0 34.918-15.616 34.918-34.918zM166.093 634.214c-19.285 0-34.918 15.634-34.918 34.918s15.634 34.918 34.918 34.918v0-0.051h698.214c19.285 0 34.918-15.634 34.918-34.918s-15.634-34.918-34.918-34.918h-698.214z" />
<glyph unicode="&#xe906;" glyph-name="save" d="M906.563 671.555c5.949-5.632 9.65-13.585 9.65-22.402 0-0.158-0.001-0.315-0.004-0.473v0.024-574.195c0-17.246-12.827-30.666-29.373-30.666h-749.676c-16.546-0.054-29.373 13.312-29.373 30.612v747.035c0 17.246 12.827 30.666 29.373 30.666h573.332c9.108 0 15.899-2.964 20.857-7.815l175.212-172.84zM465.758 790.339v-174.511h99.436v174.511h-99.436zM857.411 105.661v530.755l-157.588 153.923h-65.752v-243.065h-345.681v243.065h-121.802v-684.679h690.823z" />
<glyph unicode="&#xe907;" glyph-name="star2" d="M992.341 553.813c0.858-2.491 1.354-5.361 1.354-8.347 0-7.676-3.275-14.587-8.504-19.413l-0.018-0.016-215.168-201.6 50.773-284.629c0.249-1.37 0.392-2.946 0.392-4.556 0-9.086-4.544-17.11-11.483-21.925l-0.088-0.058c-4.635-3.239-10.388-5.176-16.593-5.176-4.794 0-9.319 1.156-13.31 3.205l0.164-0.077-266.069 134.4-269.781-134.485c-3.786-1.923-8.256-3.050-12.989-3.050-6.236 0-12.015 1.956-16.758 5.288l0.093-0.062c-7.021 4.864-11.562 12.879-11.562 21.954 0 1.59 0.139 3.147 0.406 4.66l-0.023-0.16 50.773 284.672-215.125 201.6c-5.227 4.84-8.489 11.739-8.489 19.399 0 2.997 0.499 5.877 1.419 8.562l-0.055-0.186c3.527 9.86 12.166 17.061 22.641 18.459l0.143 0.016 297.557 41.557 136.704 259.2c4.891 8.911 14.211 14.851 24.918 14.851 0.15 0 0.299-0.001 0.448-0.003h-0.023c10.667 0 20.395-5.888 25.173-15.104l132.949-258.987 297.387-41.515c10.667-1.493 19.456-8.661 22.784-18.475zM720 353.323l184.832 173.184-255.445 35.669c-9.275 1.262-17.012 6.882-21.174 14.696l-0.074 0.152-114.603 223.147-117.76-223.403c-4.276-7.842-11.966-13.36-21.018-14.576l-0.145-0.016-255.445-35.669 184.832-173.184c5.235-4.848 8.501-11.757 8.501-19.429 0-1.608-0.143-3.182-0.418-4.71l0.024 0.161-43.691-244.907 232.448 115.883c3.788 1.921 8.258 3.046 12.992 3.046 4.801 0 9.331-1.157 13.327-3.208l-0.164 0.077 228.48-115.413-43.648 244.48c-0.255 1.379-0.401 2.966-0.401 4.586 0 7.675 3.269 14.587 8.49 19.419l0.017 0.016z" />
<glyph unicode="&#xe908;" glyph-name="tick" d="M220.416 600.576c-23.339 24.321-56.112 39.433-92.416 39.433-70.698 0-128.009-57.312-128.009-128.009 0-34.394 13.564-65.62 35.636-88.62l-0.042 0.044 255.232-266.24c23.331-24.275 56.073-39.355 92.337-39.355 35.763 0 68.1 14.666 91.324 38.312l0.019 0.019 512.768 522.24c20.54 22.62 33.114 52.797 33.114 85.911 0 70.692-57.308 128-128 128-33.942 0-64.799-13.211-87.708-34.772l0.066 0.061-420.48-427.904-163.84 171.008z" />
<glyph unicode="&#xe909;" glyph-name="calender-dots" d="M345.28 831.808c0 17.76 14.336 32.192 32 32.192 17.696 0 32-14.4 32-32.192v-193.6c0-17.824-14.304-32.224-32-32.224-17.664 0-32 14.4-32 32.192v193.6zM633.28 831.808c0 17.76 14.336 32.192 32 32.192 17.696 0 32-14.4 32-32.192v-193.6c0-17.824-14.304-32.224-32-32.224-17.664 0-32 14.4-32 32.192v193.6zM864 676.16h-115.296c-17.696 0-32 14.4-32 32.192s14.304 32.192 32 32.192h147.296c17.664 0 32-14.4 32-32.192v-644.16c0-17.76-14.336-32.192-32-32.192h-768c-17.664 0-32 14.4-32 32.192v637.888c0 17.792 14.336 32.192 32 32.192h144.96c17.664 0 32-14.4 32-32.192s-14.336-32.224-32-32.224h-112.96v-573.44h704v579.744zM465.92 678.464c-17.696 0-32 14.4-32 32.192s14.304 32.224 32 32.224h96c17.632 0 32-14.432 32-32.224s-14.368-32.192-32-32.192h-96zM279.008 389.824c-35.36 0-64 28.8-64 64.384s28.64 64.416 64 64.416c35.328 0 64-28.8 64-64.416 0-0.048 0-0.104 0-0.16 0-35.391-28.627-64.096-63.988-64.224h-0.012zM279.008 196.544c-35.36 0-64 28.864-64 64.448 0 35.552 28.64 64.416 64 64.416 35.328 0 64-28.864 64-64.416 0-0.057 0-0.125 0-0.192 0-35.391-28.627-64.096-63.988-64.224h-0.012zM503.008 389.824c-35.36 0-64 28.8-64 64.384s28.64 64.416 64 64.416c35.328 0 64-28.8 64-64.416 0-0.048 0-0.104 0-0.16 0-35.391-28.627-64.096-63.988-64.224h-0.012zM503.008 196.544c-35.36 0-64 28.864-64 64.448 0 35.552 28.64 64.416 64 64.416 35.328 0 64-28.864 64-64.416 0-0.057 0-0.125 0-0.192 0-35.391-28.627-64.096-63.988-64.224h-0.012zM727.008 389.824c-35.36 0-64 28.8-64 64.384s28.64 64.416 64 64.416c35.328 0 64-28.8 64-64.416 0-0.048 0-0.104 0-0.16 0-35.391-28.627-64.096-63.988-64.224h-0.012zM727.008 196.544c-35.36 0-64 28.864-64 64.448 0 35.552 28.64 64.416 64 64.416 35.328 0 64-28.864 64-64.416 0-0.057 0-0.125 0-0.192 0-35.391-28.627-64.096-63.988-64.224h-0.012z" />
<glyph unicode="&#xe90a;" glyph-name="circle-plus" d="M463.607 401.579l0.152-100.2c0.032-20.921 17-37.869 37.926-37.869 20.946 0 37.926 16.98 37.926 37.926 0 0.020 0 0.040 0 0.060v-0.003l-0.152 99.745 100.2 0.19c20.921 0.032 37.869 17 37.869 37.926 0 20.946-16.98 37.926-37.926 37.926-0.020 0-0.040 0-0.060 0l-99.742-0.152-0.19 100.2c-0.032 20.921-17 37.869-37.926 37.869-20.946 0-37.926-16.98-37.926-37.926 0-0.020 0-0.040 0-0.060v0.003l0.152-99.745-100.2-0.19c-20.921-0.032-37.869-17-37.869-37.926 0-20.946 16.98-37.926 37.926-37.926 0.020 0 0.040 0 0.060 0l99.742 0.152zM743.045 680.713c61.768-61.769 99.973-147.102 99.973-241.358 0-188.513-152.82-341.333-341.333-341.333s-341.333 152.82-341.333 341.333c0 94.256 38.205 179.589 99.973 241.358v0c61.769 61.77 147.103 99.976 241.361 99.976s179.591-38.206 241.36-99.975v0z" />
<glyph unicode="&#xe90b;" glyph-name="down-arrow" d="M512.922 346.829l-270.746 281.088c-14.553 15.352-35.092 24.905-57.862 24.905-22.869 0-43.488-9.636-58.017-25.070l-0.038-0.041c-14.813-15.692-23.919-36.911-23.919-60.257 0-23.45 9.187-44.755 24.159-60.511l-0.036 0.038 328.704-341.299c14.553-15.352 35.092-24.905 57.862-24.905 22.869 0 43.488 9.636 58.017 25.070l0.038 0.041 326.656 341.299c14.813 15.692 23.919 36.911 23.919 60.257 0 23.45-9.187 44.755-24.159 60.511l0.036-0.038c-14.553 15.352-35.092 24.905-57.862 24.905-22.869 0-43.488-9.636-58.017-25.070l-0.038-0.041-268.595-280.883z" />
<glyph unicode="&#xe90c;" glyph-name="file-1" d="M365.458 750.226c0 14.885 12.581 26.917 28.16 26.917 15.506 0 28.087-12.069 28.087-26.917v-161.682c0-14.848-12.581-26.88-28.123-26.88s-28.16 12.032-28.16 26.88v161.682zM618.642 750.226c0 14.885 12.581 26.917 28.16 26.917 15.506 0 28.087-12.069 28.087-26.917v-161.682c0-14.848-12.581-26.88-28.123-26.88s-28.123 12.032-28.123 26.88v161.682zM821.467 620.251h-101.376c-15.543 0-28.16 12.069-28.16 26.917s12.617 26.88 28.16 26.88h129.463c15.579 0 28.16-12.069 28.16-26.88v-537.966c0-14.885-12.581-26.917-28.16-26.917h-675.109c-15.579 0-28.16 12.069-28.16 26.917v532.699c0 14.848 12.581 26.917 28.16 26.917h127.415c15.543 0 28.123-12.069 28.123-26.917s-12.581-26.88-28.16-26.88h-99.255v-478.976h618.935v484.206zM471.479 622.19c-15.543 0-28.16 12.069-28.16 26.88 0 14.848 12.617 26.917 28.16 26.917h84.37c15.543 0 28.16-12.069 28.16-26.917s-12.617-26.88-28.16-26.88h-84.37zM504.064 299.52c-46.592 0-84.37 36.133-84.37 80.713 0 44.544 37.778 80.677 84.37 80.677 46.629 0 84.407-36.133 84.407-80.677 0-44.581-37.778-80.713-84.407-80.713z" />
<glyph unicode="&#xe90d;" glyph-name="call" d="M512 960c282.778 0 512-229.222 512-512s-229.222-512-512-512-512 229.222-512 512 229.222 512 512 512zM660.48 386.97c-10.496 10.906-23.117 16.742-36.506 16.742-13.312 0-26.035-5.734-36.941-16.64l-34.15-34.048c-2.816 1.536-5.632 2.944-8.32 4.352-4.397 2.108-7.894 4.010-11.295 6.055l0.62-0.346c-32 20.326-61.030 46.771-88.909 81.024-13.491 17.075-22.579 31.437-29.184 46.003 8.883 8.115 17.101 16.538 25.088 24.627 3.021 3.021 6.042 6.144 9.062 9.19 22.682 22.682 22.682 52.070 0 74.752l-29.491 29.491c-3.328 3.328-6.81 6.81-10.035 10.24-6.615 6.918-13.232 13.47-20.023 19.838l-0.277 0.258c-10.496 10.368-23.040 15.872-36.198 15.872-13.184 0-25.933-5.504-36.71-15.872l-0.23-0.205-36.71-37.043c-13.185-12.938-21.849-30.441-23.431-49.946l-0.018-0.281c-2.586-31.539 6.707-60.928 13.824-80.154 17.51-47.206 43.648-90.957 82.637-137.83 45.945-55.012 102.318-99.638 166.29-131.203l2.978-1.328c24.832-11.776 57.984-25.728 95.053-28.083 2.253-0.128 4.634-0.23 6.81-0.23 24.934 0 45.901 8.96 62.31 26.803 0.102 0.205 0.333 0.307 0.435 0.512 5.632 6.835 12.109 12.979 18.893 19.558 4.659 4.429 9.421 9.088 14.054 13.952 10.701 11.11 16.307 24.064 16.307 37.376 0 13.389-5.734 26.24-16.64 37.043l-59.29 59.52zM699.136 273.229c-0.102 0-0.102-0.102 0 0-4.198-4.531-8.525-8.653-13.158-13.184-7.040-6.707-14.157-13.722-20.864-21.606-10.906-11.674-23.757-17.152-40.602-17.152-1.638 0-3.354 0-4.966 0.077-32.077 2.048-61.901 14.592-84.25 25.293-63.048 31.016-116.141 73.051-158.821 124.094l-0.616 0.757c-36.864 44.416-61.466 85.453-77.773 129.536-10.061 26.88-13.722 47.846-12.109 67.584 1.075 12.646 5.939 23.142 14.899 32.102l36.864 36.838c5.274 4.966 10.88 7.68 16.384 7.68 6.81 0 12.339-4.096 15.795-7.578l0.307-0.333c6.605-6.144 12.851-12.544 19.456-19.328 3.328-3.456 6.81-6.912 10.24-10.496l29.517-29.466c11.443-11.443 11.443-22.016 0-33.485-3.149-3.123-6.17-6.272-9.293-9.293-9.088-9.293-17.715-17.92-27.136-26.368-0.205-0.205-0.41-0.307-0.512-0.512-9.293-9.293-7.578-18.381-5.632-24.525l0.333-0.973c7.68-18.586 18.458-36.096 34.893-56.934l0.102-0.102c29.798-36.736 61.235-65.357 95.923-87.296 4.429-2.816 8.96-5.069 13.286-7.219 3.891-1.946 7.552-3.789 10.675-5.734 0.435-0.205 0.87-0.512 1.306-0.768 3.103-1.663 6.782-2.654 10.69-2.688h0.010c8.96 0 14.592 5.632 16.41 7.45l36.941 36.941c3.686 3.686 9.498 8.115 16.307 8.115 6.707 0 12.211-4.224 15.565-7.885l0.205-0.23 59.52-59.52c11.136-11.008 11.136-22.349 0.102-33.792zM532.582 582.246c29.398-5.078 54.94-18.899 74.512-38.646l0.010-0.010c19.727-19.605 33.545-45.134 38.561-73.695l0.12-0.827c1.183-6.913 7.131-12.109 14.293-12.109 0.024 0 0.048 0 0.073 0h-0.004c0.87 0 1.613 0.102 2.483 0.205 6.973 1.182 12.217 7.177 12.217 14.398 0 0.874-0.077 1.729-0.224 2.561l0.013-0.088c-6.201 35.562-22.911 66.46-46.764 90.181l-0.008 0.008c-23.736 23.865-54.642 40.575-89.216 46.627l-0.998 0.145c-0.724 0.126-1.557 0.199-2.407 0.199-7.185 0-13.164-5.166-14.424-11.987l-0.014-0.090c-0.157-0.799-0.247-1.718-0.247-2.657 0-7.116 5.157-13.027 11.937-14.201l0.086-0.012zM767.206 478.234c-10.193 58.573-37.717 109.463-77.017 148.517l-0.014 0.014c-39.071 39.304-89.96 66.82-146.89 76.767l-1.641 0.237c-0.731 0.131-1.573 0.205-2.432 0.205-7.158 0-13.105-5.181-14.297-11.997l-0.013-0.087c-0.127-0.723-0.199-1.556-0.199-2.406 0-7.226 5.234-13.23 12.118-14.426l0.087-0.013c52.333-9.135 97.802-33.716 132.727-68.803l0.009-0.010c35.135-34.909 59.727-80.391 68.601-131.273l0.211-1.463c1.183-6.913 7.131-12.109 14.293-12.109 0.024 0 0.048 0 0.073 0h-0.004c0.87 0 1.638 0.102 2.483 0.205 6.907 1.098 12.124 7.011 12.124 14.142 0 0.883-0.080 1.747-0.233 2.585l0.013-0.088z" />
<glyph unicode="&#xe90e;" glyph-name="comment" d="M512 960c282.778 0 512-229.222 512-512s-229.222-512-512-512-512 229.222-512 512 229.222 512 512 512zM646.912 652.006h-360.627c-16.717 0-30.285-13.67-30.285-30.464v-217.651c0-16.794 13.568-30.464 30.285-30.464h23.373v-81.024c0 0 0 0 0 0 0-7.014 5.664-12.705 12.668-12.749h0.004c3.328 0 6.554 1.28 8.96 3.738l89.523 90.035h17.971c7.005 0.029 12.672 5.714 12.672 12.723 0 0.018 0 0.036 0 0.054v-0.003c0 0.008 0 0.017 0 0.026 0 7.009-5.667 12.694-12.669 12.723h-0.003s-23.808 0-24.064-0.051c-3.188-0.213-6.021-1.581-8.115-3.686l-71.578-72.013s-0.026 63.795-0.077 64.128c-0.571 6.524-6 11.606-12.619 11.622h-36.047c0 0 0 0 0 0-2.715 0-4.915 2.201-4.915 4.915 0 0.009 0 0.018 0 0.027v-0.001 217.651c0 2.739 2.202 4.941 4.915 4.941h360.627c2.688 0 4.89-2.227 4.89-4.941v-83.507c0.604-6.519 6.047-11.583 12.672-11.583s12.068 5.064 12.668 11.533l0.004 0.050 0.026 83.507c0 16.794-13.568 30.464-30.259 30.464zM763.315 495.949h-252.416c-16.691 0-30.285-13.67-30.285-30.464v-148.48c0-16.794 13.568-30.464 30.285-30.464h158.029l64.026-64.41c2.295-2.331 5.485-3.775 9.012-3.775 6.984 0 12.646 5.662 12.646 12.646 0 0.058 0 0.116-0.001 0.174v-0.009 55.373h8.704c16.691 0 30.285 13.67 30.285 30.464v148.48c0 16.794-13.568 30.464-30.285 30.464zM768.23 317.005c0 0 0 0 0 0 0-2.711-2.183-4.912-4.887-4.941h-21.405c-6.681-0.010-12.152-5.177-12.644-11.734l-0.003-0.042-0.051-38.323-46.182 46.464c-2.27 2.247-5.394 3.635-8.841 3.635-0.006 0-0.011 0-0.017 0h-163.327c-2.704 0.014-4.89 2.21-4.89 4.915 0 0.009 0 0.018 0 0.027v-0.001 148.48c0 2.739 2.202 4.941 4.915 4.941h252.416c2.714 0 4.915-2.202 4.915-4.941v-148.48zM637.107 404.019c-7.005-0.029-12.672-5.714-12.672-12.723 0-0.018 0-0.036 0-0.054v0.003c0-7.040 5.683-12.749 12.672-12.749 7.016 0.015 12.698 5.705 12.698 12.723 0 0.009 0 0.018 0 0.027v-0.001c0 0.015 0 0.033 0 0.051 0 7.018-5.682 12.709-12.696 12.723h-0.001zM581.99 567.654h-230.81c-7.005-0.029-12.672-5.714-12.672-12.723 0-0.018 0-0.036 0-0.054v0.003c0-7.040 5.683-12.749 12.672-12.749h230.81c7.016 0.015 12.698 5.705 12.698 12.723 0 0.009 0 0.018 0 0.027v-0.001c0 0.015 0 0.033 0 0.051 0 7.018-5.682 12.709-12.696 12.723h-0.001zM438.784 483.302h-87.603c-7.005-0.029-12.672-5.714-12.672-12.723 0-0.009 0-0.018 0-0.027v0.001c0-7.066 5.683-12.774 12.672-12.774h87.603c7.005 0.029 12.672 5.714 12.672 12.723 0 0.018 0 0.036 0 0.054v-0.003c0 0.008 0 0.017 0 0.026 0 7.009-5.667 12.694-12.669 12.723h-0.003zM578.176 404.019c-7.005-0.029-12.672-5.714-12.672-12.723 0-0.018 0-0.036 0-0.054v0.003c0-7.040 5.683-12.749 12.672-12.749 7.005 0.029 12.672 5.714 12.672 12.723 0 0.009 0 0.018 0 0.027v-0.001c0 0.015 0 0.033 0 0.051 0 7.009-5.667 12.694-12.669 12.723h-0.003zM696.038 404.019c-7.016-0.015-12.698-5.705-12.698-12.723 0-0.018 0-0.036 0-0.054v0.003c0-7.040 5.683-12.749 12.698-12.749 7.005 0.029 12.672 5.714 12.672 12.723 0 0.009 0 0.018 0 0.027v-0.001c0 0.015 0 0.033 0 0.051 0 7.009-5.667 12.694-12.669 12.723h-0.003z" />
<glyph unicode="&#xe90f;" glyph-name="home" d="M292.315 595.858c0.878-2.926 1.353-5.998 1.353-9.179v-406.711h436.663v413.074c0 1.865 0.146 3.694 0.475 5.486l-214.857 147.895-223.634-150.565zM233.838 556.471l-77.714-52.297c-4.634-3.163-10.357-5.050-16.521-5.050-10.445 0-19.625 5.42-24.88 13.6l-0.071 0.117c-3.101 4.739-4.945 10.544-4.945 16.78 0 10.559 5.29 19.883 13.364 25.466l0.103 0.067 376.466 253.513c4.617 3.16 10.323 5.046 16.47 5.046 6.26 0 12.064-1.956 16.832-5.291l-0.095 0.063 368.274-253.477c8.010-5.676 13.175-14.91 13.175-25.35 0-6.358-1.915-12.268-5.2-17.185l0.071 0.113c-5.349-8.159-14.45-13.472-24.793-13.472-6.262 0-12.070 1.948-16.849 5.271l0.097-0.064-77.458 53.321v-408.21c0.001-0.098 0.002-0.215 0.002-0.331 0-16.589-13.355-30.058-29.9-30.243h-496.511c-16.562 0.185-29.917 13.654-29.917 30.243 0 0.116 0.001 0.233 0.002 0.349v-0.018 407.040z" />
<glyph unicode="&#xe910;" glyph-name="events" horiz-adv-x="884" d="M441.809 416.815h245.015v-246.924h-245.015zM784.803 861.231h-48.919v98.769h-98.025v-98.769h-392.052v98.769h-98.025v-98.769h-49.012c-54.132 0-97.513-44.218-97.513-98.769l-0.465-691.34c0-54.551 43.846-98.769 97.978-98.769h686.080c54.132 0 97.978 44.218 97.978 98.769v691.34c0.001 0.125 0.001 0.272 0.001 0.419 0 54.203-43.848 98.165-98.008 98.35h-0.018zM784.803 71.121h-686.033v543.185h686.080v-543.185z" />
<glyph unicode="&#xe911;" glyph-name="logout" d="M763.246 444.855h-305.847c-19.693 0.185-35.586 16.193-35.586 35.912 0 0.116 0.001 0.232 0.002 0.348v-0.018c0 20.041 15.945 36.279 35.584 36.279h314.002l-45.312 56.759c-4.987 6.215-8.003 14.197-8.003 22.884 0 11.269 5.077 21.353 13.068 28.088l0.055 0.045c6.045 5.072 13.91 8.153 22.495 8.153 11.17 0 21.122-5.216 27.552-13.346l0.056-0.074 88.43-110.775c10.606-13.312 10.606-32.439 0-45.751l-85.285-106.789c-6.486-8.192-16.432-13.401-27.593-13.401-8.574 0-16.431 3.074-22.528 8.18l0.055-0.045c-8.046 6.781-13.123 16.864-13.123 28.133 0 8.687 3.016 16.669 8.059 22.956l-0.056-0.072 33.902 42.533zM290.56 741.193v-549.815h436.663c19.675 0 35.621-16.238 35.621-36.242 0.001-0.109 0.002-0.238 0.002-0.367 0-19.719-15.893-35.726-35.568-35.912h-472.265c-19.693 0.185-35.586 16.192-35.586 35.912 0 0.129 0.001 0.258 0.002 0.387v-0.020 622.299c0 20.041 15.945 36.279 35.584 36.279h486.034c19.675 0 35.584-16.238 35.584-36.279 0.001-0.098 0.002-0.214 0.002-0.331 0-19.719-15.893-35.726-35.568-35.912h-450.468z" />
<glyph unicode="&#xe912;" glyph-name="mobile" d="M673.885 913.455h-354.909c-68.327-0.106-123.685-55.48-123.764-123.803v-683.295c0.053-68.357 55.453-123.758 123.806-123.811h354.868c68.367 0.053 123.778 55.448 123.857 123.803v683.295c-0.079 68.331-55.438 123.705-123.754 123.811h-0.010zM759.063 106.356c0-47.011-38.167-85.178-85.178-85.178h-354.909c-47.012 0.053-85.105 38.163-85.132 85.176v683.289c0 47.011 38.167 85.178 85.178 85.178h354.863c47.011 0 85.178-38.167 85.178-85.178v-683.287zM615.564 820.596h-238.173c-55.761 0-100.911-45.149-100.911-100.864v-427.567c0-55.761 45.149-100.911 100.911-100.911h238.173c55.715 0 100.911 45.149 100.911 100.911v427.567c0 55.706-45.158 100.864-100.864 100.864-0.016 0-0.033 0-0.049 0h0.002zM504.087 140.567h-15.22c-20.205 0-36.585-16.38-36.585-36.585s16.38-36.585 36.585-36.585h15.22c20.205 0 36.585 16.38 36.585 36.585s-16.38 36.585-36.585 36.585v0z" />
<glyph unicode="&#xe913;" glyph-name="new_survey" d="M219.429 777.765c0.165 19.891 16.327 35.951 36.241 35.951 0.116 0 0.232-0.001 0.348-0.002h384.201c9.874 0 19.383-3.95 26.258-10.935l113.006-114.615c6.619-6.729 10.313-15.689 10.313-25.015v-581.486c-0.165-19.891-16.327-35.951-36.241-35.951-0.116 0-0.232 0.001-0.348 0.002h-497.207c-20.187 0-36.571 16.091-36.571 35.95v696.101zM292.571 741.851v-624.274h424.082v531.017l-91.941 93.257h-332.142zM374.565 525.166c-10.094 0-18.286 8.046-18.286 17.993 0 9.911 8.192 17.957 18.286 17.957h256c10.094 0 18.286-8.046 18.286-17.957-0.083-9.955-8.172-17.994-18.139-17.994-0.052 0-0.103 0-0.155 0.001h-255.992zM374.565 453.303c-10.094 0-18.286 8.046-18.286 17.957 0 9.947 8.192 17.993 18.286 17.993h256c10.094 0 18.286-8.046 18.286-17.993-0.124-9.924-8.197-17.921-18.138-17.921-0.052 0-0.104 0-0.156 0.001h-255.992zM374.565 381.44c-10.094 0-18.286 8.046-18.286 17.957 0 9.947 8.192 17.957 18.286 17.957h256c10.094 0 18.286-8.046 18.286-17.92-0.083-9.955-8.172-17.994-18.139-17.994-0.052 0-0.103 0-0.155 0.001h-255.992zM374.565 309.577c-10.094 0-18.286 8.046-18.286 17.92 0 9.947 8.192 17.993 18.286 17.993h182.857c10.094 0 18.286-8.046 18.286-17.957-0.103-9.939-8.184-17.957-18.139-17.957-0.052 0-0.103 0-0.155 0.001h-182.849z" />
<glyph unicode="&#xe914;" glyph-name="home_copy" horiz-adv-x="1061" d="M292.315 595.858c0.878-2.926 1.353-5.998 1.353-9.179v-406.711h436.663v413.074c0 1.865 0.146 3.694 0.475 5.486l-214.857 147.895-223.634-150.565zM233.838 556.471l-77.714-52.297c-4.634-3.163-10.357-5.050-16.521-5.050-10.445 0-19.625 5.42-24.88 13.6l-0.071 0.117c-3.101 4.739-4.945 10.544-4.945 16.78 0 10.559 5.29 19.883 13.364 25.466l0.103 0.067 376.466 253.513c4.617 3.16 10.323 5.046 16.47 5.046 6.26 0 12.064-1.956 16.832-5.291l-0.095 0.063 368.274-253.477c8.010-5.676 13.175-14.91 13.175-25.35 0-6.358-1.915-12.268-5.2-17.185l0.071 0.113c-5.349-8.159-14.45-13.472-24.793-13.472-6.262 0-12.070 1.948-16.849 5.271l0.097-0.064-77.458 53.321v-408.21c0.001-0.098 0.002-0.215 0.002-0.331 0-16.589-13.355-30.058-29.9-30.243h-496.511c-16.562 0.185-29.917 13.654-29.917 30.243 0 0.116 0.001 0.233 0.002 0.349v-0.018 407.040z" />
<glyph unicode="&#xe915;" glyph-name="drafts" horiz-adv-x="757" d="M734.52 28.16c0-37.487-29.384-68.341-66.115-68.341h-579.94c-36.73 0-66.115 30.854-66.115 68.341v842.797c0 37.443 29.384 68.341 66.115 68.341h397.624c11.798 0 22.795-4.897 32.456-15.137-2.894 3.161-2.894 3.161-4.096 4.096 0.312-0.223 0.312-0.223 2.493-2.271l205.334-215.619c7.48-7.836 11.709-18.12 12.199-28.895l0.045-653.312zM485.287 894.687l-396.822 0.089c-11.62 0-21.593-10.463-21.593-23.819v-842.797c0-13.357 9.973-23.819 21.593-23.819h579.94c11.62 0 21.593 10.463 21.593 23.819v651.531l-204.711 215.040zM689.998 679.558v-0.846l0.045-0.223c-0.013 0.225-0.029 0.597-0.042 0.97l-0.003 0.098zM485.242 894.776c0-0.013 0-0.029 0-0.045s0-0.031 0-0.047v0.002l-0.445 0.534c0.312-0.267 0.757-0.445 1.336-0.445h-0.89zM529.23 723.679h59.926l-59.926 62.954v-62.954zM693.070 679.157h-177.33c-17.171 0.151-31.032 14.105-31.032 31.298 0 0.079 0 0.157 0.001 0.236v-0.012 187.258l208.362-218.78zM648.326 28.205v0zM648.326 48.106v587.242h-132.586c-40.381 0-72.749 34.015-72.749 75.331v140.243h-334.447v-802.861h539.782zM692.847 28.16c0-13.357-10.685-24.576-24.487-24.576h-579.851c-13.505 0.025-24.443 10.979-24.443 24.487 0 0.031 0 0.063 0 0.094v-0.005 842.797c0 13.357 10.685 24.531 24.487 24.531h399.004v-184.81c0-17.185 12.911-30.765 28.227-30.765h177.107v-651.798z" />
<glyph unicode="&#xe916;" glyph-name="home_menu" d="M1001.082 497.737l-497.762 462.263-497.762-462.263c-2.914-3.098-4.705-7.282-4.705-11.884 0-9.587 7.772-17.359 17.359-17.359 4.165 0 7.987 1.466 10.978 3.911l-0.031-0.025 74.947 69.632v-594.944h277.699v312.418c-0.016 0.724-0.024 1.578-0.024 2.434 0 67.111 54.404 121.515 121.515 121.515s121.515-54.404 121.515-121.515c0-0.856-0.009-1.71-0.026-2.561l0.002 0.127v-312.418h277.699v594.895l74.947-69.632c3.079-2.892 7.235-4.668 11.805-4.668 5.029 0 9.556 2.151 12.711 5.582l0.011 0.012c2.881 3.090 4.65 7.251 4.65 11.825 0 5.010-2.123 9.525-5.518 12.693l-0.010 0.009z" />
<glyph unicode="&#xe917;" d="M512 960c282.77 0 512-229.23 512-512s-229.23-512-512-512c-282.77 0-512 229.23-512 512s229.23 512 512 512z" />
<glyph unicode="&#xe918;" glyph-name="view" horiz-adv-x="1638" d="M818.995 891.733c286.857 0 546.953-154.761 738.918-406.46 7.324-9.609 11.734-21.783 11.734-34.987s-4.41-25.378-11.838-35.129l0.104 0.142c-191.966-251.426-452.062-406.187-738.918-406.187s-547.021 154.761-738.987 406.46c-7.324 9.609-11.734 21.783-11.734 34.987s4.41 25.378 11.838 35.129l-0.104-0.142c191.966 251.426 452.13 406.187 738.987 406.187zM839.543 139.639c156.945 10.035 284.399 135.714 294.571 290.475 11.947 188.143-145.271 342.903-335.735 331.093-157.218-9.694-284.672-135.441-294.502-290.475-12.015-188.143 145.271-342.903 335.667-331.093zM829.986 283.204c-102.537-6.349-187.324 76.937-180.565 178.176 5.257 83.558 74.001 151.074 158.788 156.535 102.605 6.349 187.392-76.937 180.634-178.108-5.53-83.9-74.411-151.415-158.788-156.604z" />
<glyph unicode="&#xe919;" glyph-name="star" d="M864.622 564.078c28.242-4.223 49.655-28.31 49.655-57.398 0-16.274-6.702-30.982-17.497-41.516l-0.012-0.011-149.577-145.774 35.291-205.897c0.52-2.917 0.817-6.275 0.817-9.702 0-32.034-25.969-58.002-58.002-58.002-9.846 0-19.12 2.453-27.242 6.782l0.313-0.152-185.125 97.28-187.867-97.463c-7.749-4.099-16.938-6.505-26.689-6.505-32.034 0-58.002 25.969-58.002 58.002 0 3.461 0.303 6.851 0.884 10.146l-0.051-0.349 35.291 205.824-149.577 145.81c-10.806 10.545-17.508 25.253-17.508 41.527 0 29.089 21.413 53.176 49.336 57.359l0.319 0.039 207.104 30.062 95.195 187.794c9.749 19.058 29.248 31.877 51.74 31.877 22.708 0 42.364-13.066 51.861-32.090l0.152-0.336 92.453-187.282 206.738-30.025zM609.353 527.25l-96.11 194.633-98.67-194.67-214.309-31.086 155.136-151.223-3.255-18.944-33.39-194.779 194.706 101.047 191.744-100.791-36.608 213.504 13.751 13.422 141.385 137.765-214.418 31.159z" />
<glyph unicode="&#xe91a;" glyph-name="info" d="M512 903.111c250.937 0 455.111-204.174 455.111-455.111s-204.174-455.111-455.111-455.111-455.111 204.174-455.111 455.111 204.174 455.111 455.111 455.111zM512 75.662c205.532 0.259 372.079 166.805 372.338 372.313v0.025c-0.259 205.532-166.805 372.079-372.313 372.338h-0.025c-205.532-0.259-372.079-166.805-372.338-372.313v-0.025c0.259-205.532 166.805-372.079 372.313-372.338h0.025zM512 710.030c30.476 0 55.182-24.706 55.182-55.182s-24.706-55.182-55.182-55.182v0c-30.476 0-55.182 24.706-55.182 55.182s24.706 55.182 55.182 55.182v0zM512 516.949c22.869 0 41.358-18.546 41.358-41.358v-248.263c0-22.842-18.517-41.358-41.358-41.358s-41.358 18.517-41.358 41.358v0 248.263c0 22.812 18.489 41.358 41.358 41.358z" />
<glyph unicode="&#xe91b;" glyph-name="no" d="M512 846.222c-219.932 0-398.222-178.29-398.222-398.222s178.29-398.222 398.222-398.222 398.222 178.29 398.222 398.222-178.29 398.222-398.222 398.222zM512 960c282.766 0 512-229.234 512-512s-229.234-512-512-512-512 229.234-512 512 229.234 512 512 512zM698.596 554.098c10.261 10.292 16.605 24.494 16.605 40.178 0 31.431-25.48 56.911-56.911 56.911-15.747 0-30.001-6.396-40.304-16.731l-146.263-146.775c-10.257-10.289-16.599-24.485-16.599-40.164 0-15.735 6.388-29.977 16.712-40.276l146.291-145.807c10.289-10.257 24.486-16.599 40.164-16.599 31.42 0 56.89 25.471 56.89 56.89 0 15.742-6.394 29.99-16.725 40.29l-106.014 105.644 106.126 106.468zM431.559 447.659l-106.126 106.468c-10.257 10.289-16.599 24.486-16.599 40.164 0 31.42 25.471 56.89 56.89 56.89 15.742 0 29.99-6.394 40.29-16.725l146.263-146.775c10.257-10.289 16.599-24.485 16.599-40.164 0-15.735-6.388-29.977-16.712-40.276l-146.291-145.807c-10.289-10.257-24.486-16.599-40.164-16.599-31.42 0-56.89 25.471-56.89 56.89 0 15.742 6.394 29.99 16.725 40.29l106.014 105.644z" />
<glyph unicode="&#xe91c;" d="M512 960c282.77 0 512-229.23 512-512s-229.23-512-512-512c-282.77 0-512 229.23-512 512s229.23 512 512 512z" />
<glyph unicode="&#xe91d;" d="M512 960c282.766 0 512-229.234 512-512s-229.234-512-512-512-512 229.234-512 512 229.234 512 512 512zM512 846.222c-219.932 0-398.222-178.29-398.222-398.222s178.29-398.222 398.222-398.222 398.222 178.29 398.222 398.222-178.29 398.222-398.222 398.222z" />
<glyph unicode="&#xe91e;" horiz-adv-x="1680" d="M390.011 369.123l-98.886 235.336-97.641-235.336h196.52zM21.15 149.64v15.441c21.975 2.505 38.455 10.844 49.447 25.033s29.836 52.718 56.541 115.587l178.169 419.346h16.693l212.808-484.448c14.181-32.267 25.519-52.224 34.006-59.871 8.487-7.654 22.742-12.87 42.772-15.647v-15.441h-217.397v15.441c25.033 2.225 41.166 4.936 48.401 8.133s10.851 11.058 10.851 23.574c0 4.177-1.392 11.544-4.177 22.115-2.777 10.572-6.674 21.703-11.684 33.387l-35.464 82.2h-223.659c-22.248-55.915-35.531-90.060-39.848-102.437-4.31-12.376-6.468-22.189-6.468-29.423 0-14.461 5.842-24.48 17.533-30.042 7.227-3.337 20.856-5.842 40.886-7.514v-15.434h-169.409zM989.626 205.968c29.49 16.973 44.231 49.52 44.231 97.641 0 47.848-17.246 80.535-51.745 98.054-34.492 17.533-78.443 26.3-131.853 26.3h-24.826c-3.477 0-8.833 0.133-16.060 0.413v-212.808c0-14.741 4.17-24.267 12.509-28.584 8.347-4.31 27.685-6.468 58.007-6.468 43.671 0 80.248 8.487 109.737 25.453zM640.376 165.081c34.492 1.945 56.814 7.293 66.965 16.060 10.159 8.767 15.235 29.143 15.235 61.131v380.132c0 31.435-5.083 51.671-15.227 60.711-10.159 9.039-32.481 14.395-66.973 16.060v15.861h239.505c68.439 0 122.747-10.984 162.949-32.967 40.194-21.975 60.291-59.805 60.291-113.495 0-40.334-14.049-70.936-42.139-91.792-15.861-11.964-39.641-21.843-71.356-29.63 39.221-9.459 72.741-25.246 100.558-47.362s41.726-53.064 41.726-92.838c0-66.766-30.867-112.662-92.631-137.702-32.547-13.076-72.601-19.611-120.169-19.611h-278.734v15.441zM962.089 475.943c36.164 16.693 54.243 46.596 54.243 89.714 0 50.905-20.863 85.257-62.589 103.063-23.088 9.739-58.14 14.601-105.155 14.601-17.798 0-28.79-1.525-32.96-4.59-4.177-3.057-6.262-11.404-6.262-25.033v-192.777l81.367 1.252c28.657 0.553 52.438 5.142 71.356 13.769zM1497.854 667.468c-24.2 10.572-54.802 15.854-91.792 15.854-17.533 0-28.311-1.739-32.341-5.216-4.037-3.477-6.056-11.198-6.056-23.154v-222.819c15.301-1.4 25.32-2.225 30.050-2.505 4.722-0.28 9.312-0.42 13.769-0.42 39.221 0 70.096 5.562 92.631 16.693 40.886 20.303 61.337 58.272 61.337 113.914 0 52.298-22.535 88.182-67.599 107.653zM1209.528 165.081c32.547 3.057 52.85 9.525 60.924 19.397 8.059 9.879 12.096 32.481 12.096 67.812v370.113c0 29.762-4.523 49.373-13.562 58.832s-28.864 15.441-59.458 17.946v15.854h225.324c72.321 0 127.683-14.049 166.065-42.139 38.389-28.097 57.587-65.101 57.587-110.997 0-58.14-21.283-100.286-63.842-126.431-42.559-26.153-95.836-39.221-159.81-39.221-9.187 0-20.937 0.206-35.265 0.626-9.123 0.323-20.295 0.55-31.503 0.624l-0.418 0.002v-155.221c0-32.274 4.936-52.578 14.815-60.924 9.872-8.347 31.921-13.776 66.14-16.281v-15.434h-239.093v15.441z" />
<glyph unicode="&#xe91f;" glyph-name="attachment" d="M324.8 233.408c-124.8 0-228.8 106.656-228.8 234.656s104 234.688 228.8 234.688h436.8c91.52 0 166.4-76.8 166.4-170.688 0-93.856-74.88-170.656-166.4-170.656h-353.6c-58.24 0-104 46.944-104 106.656 0 59.744 45.76 106.688 104 106.688h312v-64h-312c-24.96 0-41.6-17.088-41.6-42.688s16.64-42.656 41.6-42.656h353.6c58.24 0 104 46.944 104 106.656 0 59.744-45.76 106.688-104 106.688h-436.8c-91.52 0-166.4-76.8-166.4-170.688 0-93.856 74.88-170.656 166.4-170.656h395.2v-64h-395.2z" />
<glyph unicode="&#xe920;" glyph-name="map" d="M512 960c282.778 0 512-229.222 512-512s-229.222-512-512-512-512 229.222-512 512 229.222 512 512 512zM524.8 704c-105.549 0-191.411-87.347-191.411-194.688 0-133.248 171.29-328.832 178.586-337.101 3.141-3.573 7.721-5.816 12.826-5.816s9.685 2.243 12.809 5.797l0.016 0.019c7.296 8.269 178.586 203.853 178.586 337.101 0 107.341-85.862 194.688-191.411 194.688zM524.8 210.79c-57.651 69.632-156.928 207.078-156.928 298.496 0 88.064 70.4 159.642 156.928 159.642s156.928-71.603 156.928-159.616c0-91.443-99.277-228.864-156.928-298.522zM524.8 607.258c-53.094 0-96.307-43.93-96.307-97.946s43.213-97.971 96.307-97.971 96.307 43.955 96.307 97.971-43.213 97.946-96.307 97.946zM524.8 446.413c-34.099 0-61.824 28.211-61.824 62.899 0 34.662 27.725 62.874 61.824 62.874s61.824-28.211 61.824-62.874c0-34.688-27.725-62.899-61.824-62.899z" />
<glyph unicode="&#xe921;" d="M698.596 554.098c10.261 10.292 16.605 24.494 16.605 40.178 0 31.431-25.48 56.911-56.911 56.911-15.747 0-30.001-6.396-40.304-16.731l-146.263-146.775c-10.257-10.289-16.599-24.485-16.599-40.164 0-15.735 6.388-29.977 16.712-40.276l146.291-145.807c10.289-10.257 24.486-16.599 40.164-16.599 31.42 0 56.89 25.471 56.89 56.89 0 15.742-6.394 29.99-16.725 40.29l-106.014 105.644 106.126 106.468z" />
<glyph unicode="&#xe922;" d="M431.559 448.341l-106.126-106.468c-10.257-10.289-16.599-24.486-16.599-40.164 0-31.42 25.471-56.89 56.89-56.89 15.742 0 29.99 6.394 40.29 16.725l146.263 146.775c10.257 10.289 16.599 24.485 16.599 40.164 0 15.735-6.388 29.977-16.712 40.276l-146.291 145.807c-10.289 10.257-24.486 16.599-40.164 16.599-31.42 0-56.89-25.471-56.89-56.89 0-15.742 6.394-29.99 16.725-40.29l106.014-105.644z" />
<glyph unicode="&#xe923;" d="M382.407 487.367c-10.373 10.809-24.939 17.526-41.074 17.526-31.421 0-56.893-25.472-56.893-56.893 0-15.286 6.029-29.164 15.838-39.387l-0.019 0.020 113.408-118.329c10.37-10.797 24.928-17.506 41.052-17.506 15.888 0 30.254 6.513 40.575 17.014l0.008 0.008 227.954 232.107c10.429 10.317 16.886 24.629 16.886 40.449 0 31.419-25.47 56.889-56.889 56.889-16.188 0-30.797-6.762-41.157-17.615l-0.021-0.022-186.852-190.236-72.818 75.975z" />
<glyph unicode="&#xe924;" d="M382.407 487.367c-10.373 10.809-24.939 17.526-41.074 17.526-31.421 0-56.893-25.472-56.893-56.893 0-15.286 6.029-29.164 15.838-39.387l-0.019 0.020 113.408-118.329c10.37-10.797 24.928-17.506 41.052-17.506 15.888 0 30.254 6.513 40.575 17.014l0.008 0.008 227.954 232.107c10.429 10.317 16.886 24.629 16.886 40.449 0 31.419-25.47 56.889-56.889 56.889-16.188 0-30.797-6.762-41.157-17.615l-0.021-0.022-186.852-190.236-72.818 75.975z" />
<glyph unicode="&#xe925;" horiz-adv-x="1680" d="M35.847 101.284c-18.299 0-32.532-13.526-32.532-31.118 0-17.769 14.056-31.471 32.179-31.471 8.752 0 17.681 3.978 23.957 10.166l-6.188 6.895c-4.685-4.509-11.050-7.337-17.239-7.337-12.376 0-22.101 9.636-22.101 21.836s9.724 21.747 22.101 21.747c6.277 0 12.73-3.006 17.239-7.868l6.1 7.603c-6.091 5.87-14.374 9.5-23.506 9.547h-0.009zM122.659 101.019h-10.432v-36.245c0-10.52-6.277-16.708-16.355-16.708-10.166 0-16.62 6.277-16.62 16.708v36.245h-10.432v-36.245c0-16.178 10.255-26.079 26.963-26.079s26.874 9.901 26.874 26.079v36.245zM157.932 101.461c-13.437 0-22.543-6.63-22.543-17.239 0-22.012 33.416-14.321 33.416-28.112 0-4.774-4.332-7.514-11.581-7.514-6.63 0-14.586 3.183-20.951 9.017l-4.509-9.017c6.667-6.038 15.535-9.753 25.271-9.813h0.012c13.614 0 23.338 6.807 23.338 17.857 0.088 22.278-33.328 15.028-33.328 28.554 0 4.155 3.978 6.453 10.078 6.453 4.685 0 11.404-1.68 18.123-5.746l4.332 9.194c-5.746 3.801-13.614 6.365-21.659 6.365zM234.842 91.648v9.371h-49.594v-9.371h19.537v-52.511h10.432v52.511h19.625zM267.728 101.284c18.476 0 32.797-13.526 32.797-31.206s-14.321-31.383-32.797-31.383-32.797 13.702-32.797 31.383c0 17.769 14.321 31.206 32.797 31.206zM267.817 91.913c-12.2 0-22.278-9.548-22.278-21.836s10.166-22.012 22.278-22.012c0.018 0 0.038 0 0.059 0 12.125 0 21.953 9.829 21.953 21.953 0 0.021 0 0.041 0 0.062v-0.003c0 12.288-9.901 21.836-22.012 21.836zM377.082 39.137v61.882h-12.288l-20.333-41.107-20.421 41.107h-12.376v-61.882h9.813v46.235l19.537-39.781h6.807l19.537 39.781 0.088-46.235h9.636zM437.638 91.648v9.371h-44.201v-61.882h45.262v9.371h-34.831v17.062h30.234v9.371h-30.234v16.708h33.77zM490.68 39.137l-11.316 18.741c-0.884-0.088-1.856-0.088-2.829-0.088h-14.675v-18.653h-10.432v61.882h25.106c15.824 0 24.93-7.691 24.93-21.128 0-9.901-4.597-16.885-12.818-20.067l13.879-20.686h-11.846zM461.861 67.16h14.675c9.548 0 15.028 4.067 15.028 12.465 0 8.133-5.481 12.023-15.028 12.023h-14.675v-24.488zM548.584 39.137v61.882h-10.432v-61.882h10.432zM618.511 39.137v61.882h-10.255v-44.467l-33.151 44.467h-10.255v-61.882h10.432v44.378l32.974-44.378h10.255zM677.122 91.648v9.371h-49.594v-9.371h19.537v-52.511h10.432v52.511h19.625zM730.252 91.648v9.371h-44.201v-61.882h45.262v9.371h-34.831v17.062h30.234v9.371h-30.234v16.708h33.77zM754.474 48.596v52.423h-10.432v-61.882h37.218v9.459h-26.786zM801.681 48.596v52.423h-10.432v-61.882h37.218v9.459h-26.786zM848.889 39.137v61.882h-10.432v-61.882h10.432zM907.5 69.547v-17.239c-4.42-2.652-9.636-4.243-14.233-4.243-12.642 0-22.631 9.636-22.631 22.012 0 12.288 9.901 21.924 22.543 21.924 6.453 0 13.084-2.652 17.857-7.072l5.923 7.691c-6.1 5.304-14.94 8.663-23.78 8.663-18.741 0-33.151-13.526-33.151-31.206s14.233-31.383 32.532-31.383c8.487 0 17.769 3.271 24.046 8.045v22.808h-9.105zM975.57 91.648v9.371h-44.201v-61.882h45.262v9.371h-34.831v17.062h30.234v9.371h-30.234v16.708h33.77zM1043.021 39.137v61.882h-10.255v-44.467l-33.151 44.467h-10.255v-61.882h10.432v44.378l32.974-44.378h10.255zM1086.781 101.284c-18.299 0-32.532-13.526-32.532-31.118 0-17.769 14.056-31.471 32.179-31.471 8.752 0 17.681 3.978 23.957 10.166l-6.188 6.895c-4.685-4.509-11.050-7.337-17.239-7.337-12.376 0-22.101 9.636-22.101 21.836s9.724 21.747 22.101 21.747c6.277 0 12.73-3.006 17.239-7.868l6.1 7.603c-6.091 5.87-14.374 9.5-23.506 9.547h-0.009zM1165.194 91.648v9.371h-44.201v-61.882h45.262v9.371h-34.831v17.062h30.234v9.371h-30.234v16.708h33.77zM1201.793 101.019h24.664c15.559 0 24.488-7.691 24.488-21.128 0-13.968-8.929-22.101-24.488-22.101h-14.233v-18.653h-10.432v61.882zM1212.224 91.648v-24.488h13.791c9.548 0 14.94 4.067 14.94 12.465 0 8.133-5.393 12.023-14.94 12.023h-13.791zM1271.72 48.596v52.423h-10.432v-61.882h37.218v9.459h-26.786zM1348.984 53.104h-31.206l-5.923-13.968h-10.874l27.316 61.882h10.697l27.051-61.882h-11.139l-5.923 13.968zM1345.006 62.387l-11.669 27.493-11.669-27.493h23.338zM1410.424 91.648h-19.625v-52.511h-10.432v52.511h-19.537v9.371h49.594v-9.371zM1460.813 91.648l0.088 9.371h-41.549v-61.882h10.432v25.372h28.112v9.282h-28.112v17.857h31.029zM1497.854 101.284c18.476 0 32.797-13.526 32.797-31.206s-14.321-31.383-32.797-31.383-32.797 13.702-32.797 31.383c0 17.769 14.321 31.206 32.797 31.206zM1497.943 91.913c-12.2 0-22.278-9.548-22.278-21.836s10.166-22.012 22.278-22.012c0.018 0 0.038 0 0.059 0 12.125 0 21.953 9.829 21.953 21.953 0 0.021 0 0.041 0 0.062v-0.003c0 12.288-9.901 21.836-22.012 21.836zM1581.041 39.137l-11.316 18.741c-0.884-0.088-1.856-0.088-2.829-0.088h-14.675v-18.653h-10.432v61.882h25.106c15.824 0 24.93-7.691 24.93-21.128 0-9.901-4.597-16.885-12.818-20.067l13.879-20.686h-11.846zM1552.222 67.16h14.675c9.548 0 15.028 4.067 15.028 12.465 0 8.133-5.481 12.023-15.028 12.023h-14.675v-24.488zM1671.124 39.137v61.882h-12.288l-20.333-41.107-20.421 41.107h-12.376v-61.882h9.813v46.235l19.537-39.781h6.807l19.537 39.781 0.088-46.235h9.636z" />
<glyph unicode="&#xe926;" glyph-name="dots" horiz-adv-x="341" d="M170.667 675.556c-62.838 0-113.778 50.94-113.778 113.778s50.94 113.778 113.778 113.778v0c62.838 0 113.778-50.94 113.778-113.778s-50.94-113.778-113.778-113.778v0zM170.667 334.222c-62.838 0-113.778 50.94-113.778 113.778s50.94 113.778 113.778 113.778v0c62.838 0 113.778-50.94 113.778-113.778s-50.94-113.778-113.778-113.778v0zM170.667-7.111c-62.838 0-113.778 50.94-113.778 113.778s50.94 113.778 113.778 113.778v0c62.838 0 113.778-50.94 113.778-113.778s-50.94-113.778-113.778-113.778v0z" />
<glyph unicode="&#xe927;" glyph-name="folder" d="M146.286 155.429h731.429v507.502h-391.79c-13.164 0.002-24.702 6.959-31.141 17.397l-0.091 0.158-36.571 60.087h-271.835v-585.143zM128.329 813.714h310.345c0.009 0 0.020 0 0.030 0 13.166 0 24.707-6.958 31.148-17.397l0.091-0.158 36.535-60.087h407.808c20.198 0 36.571-16.374 36.571-36.571v0-580.645c0-20.198-16.374-36.571-36.571-36.571v0h-804.571c-20.198 0-36.571 16.374-36.571 36.571v0 658.286c0.004 20.195 16.376 36.564 36.571 36.564 3.302 0 6.502-0.438 9.545-1.258l-0.256 0.059c2.999 0.841 6.107 1.207 9.362 1.207z" />
<glyph unicode="&#xe928;" glyph-name="pdf" horiz-adv-x="759" d="M715.055 720.801l-189.63 195.546c-3.395 3.527-8.153 5.72-13.424 5.727h-398.223c-41.832 0-75.852-35.081-75.852-78.241v-782.222c0-43.122 34.020-78.203 75.852-78.203h530.963c41.832 0 75.852 35.081 75.852 78.241v645.31c0 0.028 0 0.062 0 0.095 0 5.341-2.111 10.188-5.543 13.754l0.006-0.006zM530.963 855.324l124.89-128.796h-86.964c-20.897 0-37.926 17.522-37.926 39.102v89.695zM682.667 61.649c0-21.58-17.029-39.14-37.926-39.14h-530.963c-20.897 0-37.926 17.56-37.926 39.14v782.184c0 21.58 17.029 39.14 37.926 39.14h379.259v-117.343c0-43.16 34.020-78.241 75.852-78.241h113.778v-625.778zM475.97 347.989c-16.56 13.238-31.346 26.438-45.391 40.384l0.031-0.031c-14.45 14.905-27.307 29.355-38.533 43.084 17.446 55.599 25.107 84.271 25.107 99.556 0 64.891-22.756 78.203-56.889 78.203-25.941 0-56.889-13.919-56.889-80.1 0-29.203 15.512-64.588 46.232-105.775-7.509-23.666-16.346-50.935-26.283-81.73-4.779-14.753-9.975-28.444-15.436-41.074-6.251-2.794-10.522-4.887-14.736-7.073l1.728 0.815c-15.057-7.775-29.355-14.791-42.667-21.239-60.53-29.62-100.542-49.152-100.542-87.799 0-28.065 29.544-45.397 56.889-45.397 35.271 0 88.481 48.545 127.393 130.389 40.353 16.422 90.567 28.596 130.162 36.181 31.744-25.145 66.788-49.228 83.778-49.228 47.028 0 56.889 28.027 56.889 51.541 0 46.232-51.2 46.232-75.852 46.232-7.661 0-28.179-2.351-54.993-6.978zM208.593 178.953c-10.847 0-18.167 5.31-18.963 6.296 0 13.881 40.088 33.451 78.886 52.414l7.471 3.641c-28.444-42.591-56.623-62.35-67.394-62.35zM341.333 529.086c0 40.96 12.326 40.96 18.963 40.96 13.426 0 18.963 0 18.963-39.064 0-8.268-5.31-28.9-15.095-61.061-14.867 23.59-22.831 43.842-22.831 59.127zM355.859 318.9c1.214 3.413 2.351 6.827 3.451 10.316l19.039 58.937c7.851-8.951 16.308-18.091 25.41-27.458 3.565-3.679 12.402-11.909 24.121-22.263-29.905-6.619-54.027-13.344-77.661-21.144l5.639 1.612zM568.889 308.736c0-8.799 0-12.44-17.598-12.553-5.158 1.138-17.105 8.42-31.858 18.735 3.311 0.464 7.295 0.805 11.331 0.943l0.199 0.005c28.027 0 35.954-2.844 37.926-7.13z" />
<glyph unicode="&#xe929;" glyph-name="play" horiz-adv-x="683" d="M640 447.659l-574.805 406.357c-3.132 2.24-7.039 3.582-11.26 3.582-3.377 0-6.553-0.859-9.322-2.37l0.102 0.051c-6.354-3.533-10.582-10.207-10.582-17.869 0-0.042 0-0.084 0-0.126v0.006-812.715c0-7.543 4.096-14.473 10.581-17.988 2.667-1.449 5.84-2.301 9.213-2.301 4.221 0 8.13 1.335 11.328 3.605l-0.061-0.041 574.805 406.357c5.194 3.755 8.534 9.796 8.534 16.617 0 0.038 0 0.076 0 0.114v-0.006c0 0.027 0 0.059 0 0.091 0 6.826-3.34 12.872-8.474 16.594l-0.059 0.041z" />
</font>
</defs>
</svg>
